<svg width="78" height="78" viewBox="0 0 78 78" fill="none" xmlns="http://www.w3.org/2000/svg">
<path d="M57.2613 13.2127C58.7395 12.4979 59.7633 10.9894 59.7633 9.23862C59.7633 8.06894 59.2987 6.94716 58.4716 6.12006C57.6445 5.29297 56.5227 4.82832 55.353 4.82832C54.1833 4.82832 53.0615 5.29297 52.2345 6.12006C51.4074 6.94716 50.9427 8.06894 50.9427 9.23862C50.9427 11.0137 51.9908 12.5342 53.4992 13.237C51.7545 22.6876 49.0768 29.7211 39.1112 31.2235C39.1112 31.2235 41.795 44.6422 54.3474 44.6422C66.8998 44.6422 68.172 31.3568 68.172 31.3568C57.9883 31.8778 57.128 19.077 57.2613 13.2127Z" fill="#F19534"/>
<path d="M21.046 13.2127C19.5678 12.4979 18.544 10.9894 18.544 9.23862C18.544 8.06894 19.0086 6.94716 19.8357 6.12006C20.6628 5.29297 21.7846 4.82832 22.9543 4.82832C24.124 4.82832 25.2457 5.29297 26.0728 6.12006C26.8999 6.94716 27.3646 8.06894 27.3646 9.23862C27.3646 11.0137 26.3165 12.5342 24.8081 13.237C26.5528 22.6876 29.2305 29.7211 39.1961 31.2235C39.1961 31.2235 36.5123 44.6422 23.9599 44.6422C11.4075 44.6422 10.1414 31.3629 10.1414 31.3629C20.319 31.8778 21.1792 19.077 21.046 13.2127Z" fill="#F19534"/>
<path d="M54.1777 44.6422C54.2323 44.6422 54.2868 44.6483 54.3413 44.6483C57.8005 44.6483 60.3994 43.6366 62.3501 42.1766L54.1777 44.6422Z" fill="#FFCA28"/>
<path d="M72.237 10.214C70.2197 9.94136 68.2932 11.8618 67.9418 14.491C67.7237 16.1327 68.166 17.6655 69.0201 18.6529L67.5662 24.6807C67.5662 24.6807 65.3429 38.9234 54.1111 41.7343C45.133 43.9819 41.8798 27.5462 41.0922 22.4695C42.8006 21.6214 43.982 19.8645 43.982 17.823C43.982 14.9575 41.6617 12.6372 38.7962 12.6372C35.9307 12.6372 33.6105 14.9575 33.6105 17.823C33.6105 19.8767 34.81 21.6517 36.5487 22.4877C35.9247 27.4978 33.1743 43.3882 23.4813 41.7283C13.6429 40.0381 9.34772 23.4691 8.35419 18.9619C9.53553 17.9926 10.1959 16.2842 9.95354 14.4486C9.60217 11.8133 7.51817 9.92318 5.3009 10.22C3.08363 10.5169 1.57516 12.8917 1.92653 15.5209C2.18098 17.4352 3.35625 18.9558 4.82837 19.5314L12.5343 67.4086C12.5343 67.4086 19.2588 72.7216 38.7962 72.7216C58.3336 72.7216 65.0581 67.4086 65.0581 67.4086L72.7822 19.4041C74.0302 18.7499 75.0116 17.2777 75.254 15.4724C75.6114 12.8371 74.2604 10.4866 72.237 10.214Z" fill="#FFCA28"/>
<path d="M39.0385 60.5266C42.2974 60.5266 44.9391 57.3776 44.9391 53.4931C44.9391 49.6087 42.2974 46.4597 39.0385 46.4597C35.7797 46.4597 33.1379 49.6087 33.1379 53.4931C33.1379 57.3776 35.7797 60.5266 39.0385 60.5266Z" fill="#1B3A4B"/>
<path d="M39.0386 48.1983C39.2688 48.4528 39.4748 48.9193 39.0386 49.828C38.6024 50.7367 36.2518 51.9665 35.8217 52.2149C35.3916 52.4693 35.1069 52.3542 34.9736 52.2512C34.3375 51.7423 34.5798 50.5913 34.9918 49.8886C35.8762 48.368 37.7482 46.7989 39.0386 48.1983Z" fill="#006466"/>
<path d="M38.6023 56.1163C37.936 56.4374 35.749 57.4127 36.4699 58.5698C36.894 59.2544 37.7724 59.5452 38.5781 59.5815C39.3838 59.6179 40.1775 59.3634 40.8923 58.9939C44.2849 57.2371 44.5575 52.6208 43.8971 52.2694C43.2186 51.9059 42.7582 52.8449 42.4068 53.2448C41.3384 54.4413 40.0459 55.4168 38.6023 56.1163Z" fill="#144552"/>
<path d="M71.5403 47.7379C72.4853 42.5098 68.9716 41.2012 68.9716 41.2012C68.9716 41.2012 66.7059 40.7893 65.6397 46.6717C64.5734 52.5481 66.8392 52.96 66.8392 52.96C66.8392 52.96 70.5891 52.9661 71.5403 47.7379Z" fill="#1B3A4B"/>
<path d="M69.9774 42.9884C70.8013 44.0909 69.8259 45.7206 68.2448 46.805C67.7783 47.1261 67.1604 47.0049 67.0695 46.7383C66.8151 45.975 66.9241 45.1087 67.2634 44.3757C68.269 42.1766 69.5594 42.431 69.9774 42.9884Z" fill="#006466"/>
<path d="M5.91271 47.8954C4.96159 42.6733 8.48135 41.3587 8.48135 41.3587C8.48135 41.3587 10.7471 40.9468 11.8133 46.8292C12.8795 52.7056 10.6138 53.1175 10.6138 53.1175C10.6138 53.1175 6.85778 53.1236 5.91271 47.8954Z" fill="#1B3A4B"/>
<path d="M9.55969 43.1338C10.3715 43.7396 10.0383 44.5332 9.42641 45.0845C8.72973 45.7206 8.19662 46.4173 7.60292 47.1382C7.51205 47.2472 7.40906 47.3684 7.26367 47.3987C6.98499 47.4593 6.76084 47.1745 6.66997 46.9019C6.40947 46.1386 6.45794 45.242 6.84566 44.5392C7.94823 42.534 9.24467 42.8975 9.55969 43.1338Z" fill="#006466"/>
<path d="M60.5751 52.8025C60.1571 55.1834 58.2488 56.8372 56.3042 56.498C54.3595 56.1587 54.093 54.1292 54.511 51.7484C54.929 49.3676 55.868 47.5441 57.8066 47.8833C59.7512 48.2226 60.9931 50.4277 60.5751 52.8025Z" fill="#4D194D"/>
<path d="M18.4349 52.8025C18.8529 55.1834 20.7612 56.8372 22.7058 56.498C24.6505 56.1587 24.9171 54.1292 24.499 51.7484C24.081 49.3676 23.142 47.5441 21.2034 47.8833C19.2648 48.2226 18.0229 50.4277 18.4349 52.8025Z" fill="#4D194D"/>
<path d="M21.2519 51.2153C20.8097 51.7121 19.7313 52.7117 19.3497 51.9483C18.8287 50.9063 19.5496 49.3312 20.3735 48.8102C21.1974 48.2892 21.8698 48.7012 21.985 49.1677C22.1243 49.7614 21.6457 50.767 21.2519 51.2153Z" fill="#FFA8A4" fill-opacity="0.1"/>
<path d="M55.7226 52.7359C55.1229 52.645 55.0562 50.5792 56.6677 48.9556C57.4371 48.1802 58.5397 49.101 58.261 50.3429C57.9944 51.5243 56.8192 52.9055 55.7226 52.7359Z" fill="#FFA8A4" fill-opacity="0.1"/>
<path d="M66.1244 59.4967C62.4956 61.3142 54.1718 66.1546 38.8023 66.1546C23.4329 66.1546 15.109 61.3142 11.4802 59.4967C11.4802 59.4967 10.1777 60.1934 10.1777 60.9204V66.4999C10.1777 67.2451 10.5715 67.9296 11.2137 68.3113C14.0489 69.9833 22.6877 73.9332 38.8084 73.9332C54.929 73.9332 63.5679 69.9833 66.4031 68.3113C66.7183 68.1254 66.9796 67.8606 67.1613 67.543C67.3429 67.2253 67.4387 66.8658 67.439 66.4999V60.9204C67.4269 60.1934 66.1244 59.4967 66.1244 59.4967Z" fill="#FFCA28"/>
<path d="M23.9902 67.1481C25.6864 67.4813 26.2014 67.6267 26.0863 68.5718C25.85 70.4316 21.991 69.9894 19.7071 69.3896C14.9878 68.1477 14.0306 66.8392 14.0306 65.67C14.0306 64.5977 14.8545 64.4705 16.1267 64.9188C17.6473 65.4579 19.9979 66.3666 23.9902 67.1481Z" fill="#FFF59D"/>
<path d="M66.1244 60.7205C66.1244 60.7205 56.0861 66.403 38.8023 66.403C21.5185 66.403 11.4802 60.7205 11.4802 60.7205" stroke="#F19534" stroke-width="3.10175" stroke-miterlimit="10" stroke-linecap="round"/>
<path d="M16.3388 30.0301C19.5617 27.728 21.2944 23.6024 21.4458 17.0354C21.4579 16.4417 21.6276 16.266 21.9486 16.2297C22.4636 16.1752 22.5484 16.6416 22.5423 16.9748C22.3969 24.0628 21.4943 28.4913 17.92 30.9873C17.7443 31.1084 16.4903 31.8717 15.9572 31.3447C15.3211 30.7268 16.1328 30.1755 16.3388 30.0301Z" fill="#FFCA28"/>
<path d="M19.2891 9.41431C19.1861 8.31779 19.4406 6.34284 22.3182 5.44624C23.1603 5.18574 23.6813 5.5977 23.7782 5.91878C24.0205 6.71845 23.3178 7.03347 22.9967 7.13646C20.7855 7.85132 20.6764 8.95389 20.2221 9.65663C19.7677 10.3594 19.3255 9.7475 19.2891 9.41431Z" fill="#FFCA28"/>
<path d="M47.3866 28.5761C50.3005 25.9893 52.2331 23.0996 53.5053 16.5205C53.6204 15.9389 53.79 15.7814 54.105 15.7935C54.62 15.8056 54.6442 16.2842 54.5897 16.6113C53.5113 23.6266 52.4875 25.6258 48.895 29.606C48.4892 30.0543 47.5017 30.4602 46.9443 29.9937C46.4415 29.5757 47.0231 28.9033 47.3866 28.5761Z" fill="#FFCA28"/>
<path d="M51.6757 9.46883C51.5727 8.37231 51.8272 6.39736 54.7048 5.50076C55.5469 5.24026 56.0679 5.65222 56.1648 5.9733C56.4071 6.77297 55.7044 7.08799 55.3833 7.19098C53.1721 7.90583 53.063 9.00841 52.6087 9.71115C52.1604 10.4139 51.7121 9.80202 51.6757 9.46883Z" fill="#FFCA28"/>
<path d="M19.1376 43.3882C12.0981 40.1956 10.0262 31.8657 8.9236 28.249C8.77821 27.7704 8.85091 27.316 9.3295 27.1706C9.80809 27.0252 10.0928 27.3342 10.2443 27.8128C11.0439 30.436 14.1518 39.196 20.5673 41.6859C21.0338 41.8676 21.7607 42.3099 21.367 43.0671C21.1065 43.5578 20.2705 43.9032 19.1376 43.3882Z" fill="#FFF59D"/>
<path d="M7.68176 14.9211C7.34251 14.2184 7.20317 13.552 5.35545 12.7826C4.88897 12.5888 4.58001 12.1586 4.70723 11.674C4.83445 11.1893 5.3191 10.8259 6.02184 10.947C8.30575 11.3408 8.80251 13.6611 8.89944 14.4668C8.99031 15.2422 8.02707 15.6239 7.68176 14.9211Z" fill="#FFF59D"/>
<path d="M58.685 43.3882C65.7245 40.1956 67.7964 31.8657 68.899 28.249C69.0444 27.7704 68.9717 27.316 68.4931 27.1706C68.0145 27.0252 67.7297 27.3342 67.5783 27.8128C66.7786 30.436 63.6708 39.196 57.2553 41.6859C56.7888 41.8676 56.0618 42.3099 56.4556 43.0671C56.7161 43.5578 57.5521 43.9032 58.685 43.3882Z" fill="#FFF59D"/>
<path d="M70.1409 14.9211C70.4802 14.2184 70.6195 13.552 72.4672 12.7826C72.9337 12.5888 73.2427 12.1586 73.1154 11.674C72.9882 11.1893 72.5036 10.8259 71.8008 10.947C69.5169 11.3408 69.0201 13.6611 68.9232 14.4668C68.8323 15.2422 69.8016 15.6239 70.1409 14.9211Z" fill="#FFF59D"/>
<path d="M35.9732 17.9017C36.3427 17.1445 36.991 16.1085 39.1052 15.6723C39.917 15.5027 40.1533 15.1513 40.0806 14.6182C39.9352 13.5096 38.5539 13.5884 37.8088 13.764C35.325 14.3456 34.7737 16.5508 34.6707 17.4231C34.5677 18.2531 35.6097 18.659 35.9732 17.9017Z" fill="#FFF59D"/>
</svg>
