<svg xmlns="http://www.w3.org/2000/svg" enable-background="new 0 0 3000 3000" viewBox="0 0 3000 3000" id="employee-is-unable-to-find-sensitive-data">
  <g>
    <path fill="#f2f2f2" d="M2113.17,2027.22H742.11V627.29c0-22.07,17.89-39.96,39.96-39.96h1291.14c22.07,0,39.96,17.89,39.96,39.96
		V2027.22z"></path>
    <ellipse cx="1500" cy="2563.81" fill="#f2f2f2" rx="1450" ry="96.73"></ellipse>
    <g>
      <path fill="#ffb902" d="M2399.39,2570.24H708.64c-55.84,0-102.46-42.16-108.03-97.53l-94.19-1216.68
			c-2.86-28.32,19.41-52.97,47.89-52.97h950.3c7.48,0,14.48-3.35,19.09-9.23l46.93-59.34c6.36-8.12,16.23-12.89,26.57-12.89h538.39
			c26.09,0,48.05,19.09,51.87,44.86l149.23,1306.25l1.11,8.11L2399.39,2570.24z"></path>
      <path fill="#f9ae06" d="M2399.39,2570.24H708.64c-55.84,0-102.46-42.16-108.03-97.53H2336.7l1.11,8.11L2399.39,2570.24z"></path>
      <path fill="#f2a807" d="M2197.47,1234.76h392.66l-88.65,1242.49c-4.89,52.7-49.11,93.01-102.04,93.01l0,0
			c-51.05,0-94.32-37.57-101.47-88.12L2197.47,1234.76z"></path>
      <g>
        <g>
          <g>
            <path fill="#293241" d="M1403.26,1965.15c122.29,0,230.85,77.73,270.14,193.41c2.87,8.45-1.65,17.62-10.1,20.49
						c-8.44,2.87-17.62-1.65-20.48-10.1c-34.84-102.58-131.11-171.5-239.56-171.5c-108.43,0-204.7,68.92-239.56,171.5
						c-2.87,8.45-12.03,12.97-20.49,10.1c-8.44-2.87-12.96-12.04-10.09-20.49C1172.43,2042.87,1281,1965.15,1403.26,1965.15z"></path>
          </g>
        </g>
      </g>
    </g>
    <g>
      <g>
        <path fill="#ff3f36" d="M1590.62 651.01c-.14-.14-.27-.26-.41-.38-22.38-20.05-49.67-33.18-81.89-39.42-.05 0-.09 0-.14-.02-15.15-2.92-31.39-4.3-48.73-4.16-35.57.27-66.78 7.41-93.53 21.44-26.73 14.04-47.17 33.6-61.31 58.73-5.5 9.74-9.95 20.05-13.24 30.79-1.29 4.21-1.89 8.4-1.86 12.52.18 21.87 18.03 40.97 41.12 41.73.62.05 1.23.05 1.85.05 19.39-.15 35.18-13.77 40.83-32.28 3.91-12.94 10.59-23.83 19.99-32.81 16.35-15.51 38.89-23.43 67.56-23.65 10.01-.08 19.25.81 27.74 2.69 15.91 3.49 29.2 10.38 39.87 20.69 1.35 1.31 2.63 2.66 3.86 4.04 13.77 15.45 20.77 36.13 20.98 61.97.06 8.15-.48 15.75-1.65 22.81-4.31 26.54-17.27 45.37-38.79 56.46-13.6 7.05-30.31 12.34-50.03 15.94-19.7 3.59-42.47 5.5-68.23 5.7-14.4.12-25.83 12.14-25.26 26.54l3.25 114.21c.62 21.5 17.94 38.67 39.28 39.22.48.03.96.03 1.44.03 10.96-.08 20.87-4.52 28.1-11.68 7.23-7.15 11.77-17.01 11.98-27.97l1.49-78.64c39.51-.32 73.49-7.24 101.92-20.78 12.11-5.77 23.22-12.73 33.32-20.9 33.81-27.41 50.52-67.94 50.1-121.63C1639.82 720.9 1623.28 680.49 1590.62 651.01zM1463.34 1128.43c.11 13.75-4.5 25.34-13.72 34.76-9.27 9.37-20.54 14.16-33.87 14.26-13.8.11-25.34-4.5-34.76-13.72-9.42-9.27-14.16-20.78-14.27-34.54-.11-13.75 4.45-25.34 13.72-34.76s20.74-14.16 34.54-14.27c13.32-.11 24.67 4.45 34.09 13.72C1458.44 1103.17 1463.23 1114.68 1463.34 1128.43z"></path>
      </g>
      <g>
        <rect width="68.98" height="152.87" x="1828.57" y="1236.47" fill="#1f2733" transform="rotate(-44.145 1862.999 1312.864)"></rect>
        <path fill="#3d5a80" d="M2525.32,1995.42L2525.32,1995.42c-36.48,35.41-94.97,33.79-129.43-3.59l-556.76-603.72l99.67-96.73
				l586.81,574.55C2561.93,1901.5,2561.8,1960.01,2525.32,1995.42z"></path>
        <path fill="#385575" d="M2525.6,1865.93c36.32,35.56,36.21,94.07-0.27,129.48c-20.61,20-48.25,28.19-74.6,24.79
				c11.23-4.24,21.82-10.81,31.01-19.73c36.48-35.4,36.61-93.91,0.28-129.47l-567.7-555.86l24.47-23.75L2525.6,1865.93z"></path>
        <path fill="#3d5a80" d="M1851.29,507.25c-212.57-219.07-562.54-224.26-781.61-11.69c-219.07,212.64-224.33,562.61-11.69,781.68
				s562.54,224.26,781.61,11.69C2058.68,1076.29,2063.93,726.32,1851.29,507.25z M1767.58,1214.64
				c-178.09,172.83-462.54,168.59-635.3-9.49c-172.83-178.02-168.59-462.54,9.42-635.3c178.09-172.83,462.54-168.59,635.37,9.49
				C1949.83,757.44,1945.6,1041.81,1767.58,1214.64z"></path>
        <path fill="#fff" d="M1767.58,1214.64c-178.09,172.83-462.54,168.59-635.3-9.49c-172.83-178.02-168.59-462.54,9.42-635.3
				c178.09-172.83,462.54-168.59,635.37,9.49C1949.83,757.44,1945.6,1041.81,1767.58,1214.64z" enable-background="new" opacity=".3"></path>
        <path fill="#385575" d="M1851.33,507.27c212.61,219.07,207.37,569.02-11.7,781.63c-38.74,37.6-81.58,68.38-127.01,92.37
				c27.56-18.39,53.85-39.54,78.47-63.44c219.05-212.6,224.3-562.55,11.68-781.62c-175.03-180.34-443.11-215.78-654.63-104.08
				C1365.68,286.82,1662.59,312.81,1851.33,507.27z"></path>
      </g>
    </g>
    <ellipse cx="1173.66" cy="1782.81" fill="#293241" rx="58.3" ry="84.75"></ellipse>
    <ellipse cx="1607.62" cy="1782.81" fill="#293241" rx="58.3" ry="84.75"></ellipse>
  </g>
</svg>
